<?xml version="1.0" encoding="utf-8"?>
<!-- Generator: Adobe Illustrator 24.0.1, SVG Export Plug-In . SVG Version: 6.00 Build 0)  -->
<svg version="1.1" id="레이어_1" xmlns="http://www.w3.org/2000/svg" xmlns:xlink="http://www.w3.org/1999/xlink" x="0px"
	 y="0px" viewBox="0 0 200 50" style="enable-background:new 0 0 200 50;" xml:space="preserve">
<style type="text/css">
	.st0{fill:#0CFFE1;}
	.st1{fill:#CF1D6A;}
</style>
<g>
	<path class="st0" d="M120.57,4.29h0.6v3.59h-0.6v-1.6h-1.47v1.6h-0.6V4.29h0.6v1.5h1.47V4.29z"/>
	<path class="st0" d="M125.34,4.29h0.59l-0.94,3.59h-0.62l-0.64-2.69l-0.64,2.69h-0.62l-0.94-3.59h0.59l0.68,2.78l0.65-2.78h0.58
		l0.65,2.78L125.34,4.29z"/>
	<path class="st0" d="M126.43,7.88h-0.59l1.19-3.59h0.62l1.19,3.59h-0.59l-0.29-0.9h-1.25L126.43,7.88z M127.34,5.01l-0.48,1.52
		h0.96L127.34,5.01z"/>
	<path class="st0" d="M129.81,7.36c0.13,0.05,0.27,0.08,0.42,0.08c0.19,0,0.35-0.05,0.47-0.14c0.12-0.09,0.18-0.23,0.18-0.4
		c0-0.08-0.01-0.15-0.04-0.21c-0.03-0.06-0.07-0.11-0.12-0.15c-0.05-0.05-0.12-0.09-0.2-0.13c-0.08-0.04-0.18-0.08-0.29-0.13
		c-0.15-0.06-0.29-0.12-0.42-0.19c-0.12-0.07-0.23-0.15-0.32-0.24c-0.09-0.09-0.16-0.19-0.21-0.3c-0.05-0.11-0.07-0.23-0.07-0.37
		c0-0.15,0.03-0.29,0.09-0.41c0.06-0.12,0.15-0.21,0.25-0.29c0.11-0.08,0.23-0.14,0.38-0.18c0.15-0.04,0.31-0.06,0.48-0.06
		c0.18,0,0.36,0.03,0.53,0.1c0.17,0.06,0.33,0.15,0.47,0.24l-0.27,0.43c-0.13-0.09-0.25-0.16-0.37-0.21
		c-0.12-0.05-0.24-0.08-0.37-0.08c-0.21,0-0.36,0.04-0.46,0.13c-0.1,0.09-0.15,0.19-0.15,0.31c0,0.08,0.01,0.15,0.04,0.22
		c0.03,0.06,0.08,0.12,0.14,0.17c0.06,0.05,0.14,0.1,0.23,0.14c0.09,0.04,0.19,0.09,0.31,0.13c0.16,0.06,0.29,0.13,0.41,0.2
		c0.12,0.07,0.22,0.14,0.3,0.23c0.08,0.09,0.14,0.18,0.18,0.29c0.04,0.11,0.06,0.23,0.06,0.37c0,0.14-0.03,0.27-0.08,0.39
		c-0.05,0.12-0.13,0.23-0.23,0.32c-0.1,0.09-0.23,0.17-0.38,0.22c-0.15,0.05-0.33,0.08-0.54,0.08c-0.2,0-0.39-0.03-0.57-0.09
		c-0.18-0.06-0.36-0.16-0.54-0.29l0.26-0.43C129.53,7.23,129.68,7.31,129.81,7.36z"/>
	<path class="st0" d="M133.37,7.92c-0.18,0-0.35-0.03-0.51-0.08c-0.16-0.05-0.3-0.14-0.42-0.25c-0.12-0.11-0.21-0.26-0.28-0.44
		c-0.07-0.18-0.1-0.4-0.1-0.66V4.29h0.6v2.28c0,0.16,0.02,0.29,0.05,0.4c0.03,0.11,0.09,0.2,0.15,0.27
		c0.06,0.07,0.14,0.12,0.23,0.15c0.09,0.03,0.19,0.05,0.29,0.05c0.11,0,0.2-0.02,0.29-0.05c0.09-0.03,0.17-0.08,0.23-0.15
		c0.06-0.07,0.11-0.16,0.15-0.27c0.03-0.11,0.05-0.24,0.05-0.4V4.29h0.6v2.21c0,0.26-0.03,0.48-0.1,0.66
		c-0.07,0.18-0.16,0.33-0.28,0.44c-0.12,0.12-0.26,0.2-0.42,0.25C133.73,7.9,133.56,7.92,133.37,7.92z"/>
	<path class="st0" d="M136,4.98v2.9h-0.57V4.29h0.74l1.4,2.87V4.29h0.57v3.59h-0.73L136,4.98z"/>
	<path class="st0" d="M119.02,11.61v1h1.53v0.49h-1.53v1.6h-0.59v-3.59h2.22v0.5H119.02z"/>
	<path class="st0" d="M122.64,14.76c-0.23,0-0.44-0.04-0.64-0.12c-0.19-0.08-0.36-0.2-0.5-0.36c-0.14-0.16-0.25-0.35-0.32-0.57
		c-0.08-0.23-0.12-0.48-0.12-0.77c0-0.29,0.04-0.56,0.12-0.79c0.08-0.23,0.18-0.43,0.32-0.59c0.14-0.16,0.3-0.28,0.5-0.36
		c0.19-0.08,0.41-0.12,0.64-0.12c0.23,0,0.45,0.04,0.64,0.12c0.19,0.08,0.36,0.2,0.5,0.36c0.14,0.16,0.24,0.35,0.32,0.59
		c0.08,0.23,0.12,0.5,0.12,0.79c0,0.29-0.04,0.54-0.12,0.77c-0.08,0.23-0.18,0.42-0.32,0.57c-0.14,0.16-0.31,0.27-0.5,0.36
		C123.08,14.72,122.87,14.76,122.64,14.76z M122.64,11.56c-0.17,0-0.31,0.04-0.43,0.11c-0.12,0.07-0.22,0.17-0.31,0.3
		c-0.08,0.12-0.14,0.27-0.18,0.44c-0.04,0.17-0.06,0.35-0.06,0.54c0,0.19,0.02,0.37,0.06,0.53c0.04,0.16,0.11,0.3,0.19,0.42
		c0.08,0.12,0.19,0.21,0.31,0.28c0.12,0.07,0.26,0.1,0.42,0.1c0.16,0,0.3-0.03,0.42-0.1c0.12-0.07,0.22-0.16,0.31-0.28
		c0.08-0.12,0.15-0.26,0.19-0.42c0.04-0.16,0.06-0.34,0.06-0.53c0-0.19-0.02-0.37-0.06-0.54c-0.04-0.17-0.1-0.32-0.18-0.44
		c-0.08-0.12-0.18-0.22-0.31-0.3C122.95,11.6,122.8,11.56,122.64,11.56z"/>
	<path class="st0" d="M126.14,14.75c-0.18,0-0.35-0.03-0.51-0.08c-0.16-0.05-0.3-0.14-0.42-0.25c-0.12-0.11-0.21-0.26-0.28-0.44
		c-0.07-0.18-0.1-0.4-0.1-0.66v-2.21h0.6v2.28c0,0.16,0.02,0.29,0.05,0.4s0.08,0.2,0.15,0.27c0.06,0.07,0.14,0.12,0.23,0.15
		c0.09,0.03,0.19,0.05,0.29,0.05c0.11,0,0.2-0.02,0.29-0.05c0.09-0.03,0.17-0.08,0.23-0.15c0.06-0.07,0.11-0.16,0.15-0.27
		c0.03-0.11,0.05-0.24,0.05-0.4v-2.28h0.6v2.21c0,0.26-0.03,0.48-0.1,0.66c-0.07,0.18-0.16,0.33-0.28,0.44
		c-0.12,0.12-0.26,0.2-0.42,0.25C126.49,14.72,126.32,14.75,126.14,14.75z"/>
	<path class="st0" d="M128.77,11.8v2.9h-0.57v-3.59h0.74l1.4,2.87v-2.87h0.57v3.59h-0.73L128.77,11.8z"/>
	<path class="st0" d="M132.82,11.11c0.28,0,0.52,0.04,0.72,0.13c0.2,0.09,0.37,0.21,0.5,0.37c0.13,0.16,0.22,0.35,0.28,0.57
		c0.06,0.22,0.09,0.46,0.09,0.73c0,0.27-0.03,0.51-0.09,0.73c-0.06,0.22-0.16,0.41-0.28,0.57c-0.13,0.16-0.29,0.28-0.5,0.37
		c-0.2,0.09-0.44,0.13-0.72,0.13h-1.17v-3.59H132.82z M132.85,14.2c0.13,0,0.26-0.02,0.37-0.06c0.12-0.04,0.22-0.12,0.3-0.22
		c0.09-0.1,0.15-0.23,0.2-0.4c0.05-0.17,0.07-0.37,0.07-0.62c0-0.24-0.02-0.45-0.08-0.61c-0.05-0.17-0.12-0.3-0.21-0.4
		c-0.09-0.1-0.2-0.17-0.32-0.21c-0.12-0.04-0.25-0.07-0.39-0.07h-0.57v2.59H132.85z"/>
	<path class="st0" d="M135.31,14.7h-0.59l1.19-3.59h0.62l1.19,3.59h-0.59l-0.29-0.9h-1.25L135.31,14.7z M136.21,11.83l-0.48,1.52
		h0.96L136.21,11.83z"/>
	<path class="st0" d="M140.27,11.11v0.5h-1.01v3.09h-0.59v-3.09h-0.98v-0.5H140.27z"/>
	<path class="st0" d="M140.74,11.11h0.59v3.59h-0.59V11.11z"/>
	<path class="st0" d="M143.52,14.76c-0.23,0-0.44-0.04-0.64-0.12c-0.19-0.08-0.36-0.2-0.5-0.36c-0.14-0.16-0.25-0.35-0.32-0.57
		c-0.08-0.23-0.12-0.48-0.12-0.77c0-0.29,0.04-0.56,0.12-0.79c0.08-0.23,0.18-0.43,0.32-0.59c0.14-0.16,0.3-0.28,0.5-0.36
		c0.19-0.08,0.41-0.12,0.64-0.12c0.23,0,0.45,0.04,0.64,0.12c0.19,0.08,0.36,0.2,0.5,0.36c0.14,0.16,0.24,0.35,0.32,0.59
		c0.08,0.23,0.12,0.5,0.12,0.79c0,0.29-0.04,0.54-0.12,0.77c-0.08,0.23-0.19,0.42-0.32,0.57c-0.14,0.16-0.31,0.27-0.5,0.36
		C143.96,14.72,143.75,14.76,143.52,14.76z M143.52,11.56c-0.17,0-0.31,0.04-0.43,0.11c-0.12,0.07-0.22,0.17-0.31,0.3
		c-0.08,0.12-0.14,0.27-0.18,0.44c-0.04,0.17-0.06,0.35-0.06,0.54c0,0.19,0.02,0.37,0.07,0.53c0.04,0.16,0.11,0.3,0.19,0.42
		c0.08,0.12,0.19,0.21,0.31,0.28c0.12,0.07,0.26,0.1,0.42,0.1c0.16,0,0.3-0.03,0.42-0.1c0.12-0.07,0.22-0.16,0.31-0.28
		c0.08-0.12,0.15-0.26,0.19-0.42c0.04-0.16,0.07-0.34,0.07-0.53c0-0.19-0.02-0.37-0.06-0.54c-0.04-0.17-0.1-0.32-0.18-0.44
		c-0.08-0.12-0.18-0.22-0.31-0.3C143.83,11.6,143.69,11.56,143.52,11.56z"/>
	<path class="st0" d="M146.27,11.8v2.9h-0.57v-3.59h0.74l1.4,2.87v-2.87h0.57v3.59h-0.73L146.27,11.8z"/>
	<path class="st0" d="M151.08,11.61v1h1.53v0.49h-1.53v1.6h-0.59v-3.59h2.22v0.5H151.08z"/>
	<path class="st0" d="M154.7,14.76c-0.23,0-0.44-0.04-0.64-0.12c-0.19-0.08-0.36-0.2-0.5-0.36c-0.14-0.16-0.25-0.35-0.32-0.57
		c-0.08-0.23-0.11-0.48-0.11-0.77c0-0.29,0.04-0.56,0.11-0.79c0.08-0.23,0.18-0.43,0.32-0.59c0.14-0.16,0.3-0.28,0.5-0.36
		c0.19-0.08,0.41-0.12,0.64-0.12c0.23,0,0.45,0.04,0.64,0.12c0.19,0.08,0.36,0.2,0.5,0.36c0.14,0.16,0.24,0.35,0.32,0.59
		c0.08,0.23,0.12,0.5,0.12,0.79c0,0.29-0.04,0.54-0.12,0.77c-0.08,0.23-0.19,0.42-0.32,0.57c-0.14,0.16-0.31,0.27-0.5,0.36
		C155.14,14.72,154.93,14.76,154.7,14.76z M154.7,11.56c-0.17,0-0.31,0.04-0.43,0.11c-0.12,0.07-0.22,0.17-0.31,0.3
		c-0.08,0.12-0.14,0.27-0.18,0.44c-0.04,0.17-0.06,0.35-0.06,0.54c0,0.19,0.02,0.37,0.07,0.53c0.04,0.16,0.11,0.3,0.19,0.42
		c0.08,0.12,0.19,0.21,0.31,0.28c0.12,0.07,0.26,0.1,0.42,0.1c0.16,0,0.3-0.03,0.42-0.1c0.12-0.07,0.22-0.16,0.31-0.28
		c0.08-0.12,0.15-0.26,0.19-0.42c0.04-0.16,0.06-0.34,0.06-0.53c0-0.19-0.02-0.37-0.06-0.54c-0.04-0.17-0.1-0.32-0.18-0.44
		c-0.08-0.12-0.18-0.22-0.31-0.3C155.01,11.6,154.86,11.56,154.7,11.56z"/>
	<path class="st0" d="M158.06,11.11c0.77,0,1.15,0.36,1.15,1.09c0,0.27-0.06,0.5-0.18,0.67c-0.12,0.18-0.29,0.3-0.52,0.36l0.95,1.47
		h-0.64l-0.92-1.42h-0.43v1.42h-0.59v-3.59H158.06z M158.04,12.79c0.18,0,0.32-0.04,0.43-0.13c0.11-0.09,0.16-0.24,0.16-0.45
		c0-0.21-0.05-0.36-0.16-0.46c-0.11-0.09-0.25-0.14-0.43-0.14h-0.58v1.18H158.04z"/>
	<path class="st0" d="M118.27,19.75c0-0.24,0.03-0.48,0.1-0.7c0.07-0.22,0.17-0.42,0.3-0.59c0.14-0.17,0.31-0.3,0.52-0.41
		c0.21-0.1,0.46-0.15,0.75-0.15c0.39,0,0.73,0.11,1.02,0.34l-0.3,0.42c-0.1-0.08-0.21-0.14-0.32-0.19c-0.11-0.05-0.25-0.08-0.4-0.08
		c-0.18,0-0.34,0.04-0.48,0.11s-0.25,0.18-0.33,0.3c-0.09,0.13-0.15,0.27-0.2,0.43c-0.04,0.16-0.06,0.33-0.06,0.51
		c0,0.17,0.02,0.33,0.06,0.49c0.04,0.16,0.11,0.3,0.2,0.43c0.09,0.13,0.2,0.23,0.33,0.31c0.13,0.08,0.29,0.12,0.48,0.12
		c0.29,0,0.56-0.11,0.79-0.32l0.33,0.38c-0.15,0.14-0.33,0.25-0.52,0.32c-0.19,0.07-0.39,0.11-0.6,0.11c-0.29,0-0.54-0.05-0.75-0.16
		c-0.21-0.1-0.38-0.24-0.52-0.41c-0.14-0.17-0.24-0.37-0.3-0.59C118.3,20.21,118.27,19.98,118.27,19.75z"/>
	<path class="st0" d="M122.87,21.58c-0.18,0-0.35-0.03-0.51-0.08c-0.16-0.05-0.3-0.14-0.42-0.25c-0.12-0.11-0.21-0.26-0.28-0.44
		c-0.07-0.18-0.1-0.4-0.1-0.66v-2.21h0.6v2.28c0,0.16,0.02,0.29,0.05,0.4c0.03,0.11,0.08,0.2,0.15,0.27
		c0.06,0.07,0.14,0.12,0.23,0.15c0.09,0.03,0.19,0.05,0.29,0.05c0.11,0,0.2-0.02,0.29-0.05c0.09-0.03,0.17-0.08,0.23-0.15
		c0.06-0.07,0.11-0.16,0.15-0.27c0.03-0.11,0.05-0.24,0.05-0.4v-2.28h0.6v2.21c0,0.26-0.03,0.48-0.1,0.66
		c-0.07,0.18-0.16,0.33-0.28,0.44c-0.12,0.12-0.26,0.2-0.42,0.25C123.22,21.55,123.05,21.58,122.87,21.58z"/>
	<path class="st0" d="M127.11,21.03v0.5h-2.18v-3.59h0.6v3.09H127.11z"/>
	<path class="st0" d="M129.53,17.94v0.5h-1.01v3.09h-0.59v-3.09h-0.98v-0.5H129.53z"/>
	<path class="st0" d="M131.32,21.58c-0.18,0-0.35-0.03-0.51-0.08c-0.16-0.05-0.3-0.14-0.42-0.25c-0.12-0.11-0.21-0.26-0.28-0.44
		c-0.07-0.18-0.1-0.4-0.1-0.66v-2.21h0.6v2.28c0,0.16,0.02,0.29,0.05,0.4c0.04,0.11,0.08,0.2,0.15,0.27
		c0.06,0.07,0.14,0.12,0.23,0.15c0.09,0.03,0.19,0.05,0.29,0.05c0.11,0,0.2-0.02,0.29-0.05c0.09-0.03,0.17-0.08,0.23-0.15
		c0.06-0.07,0.11-0.16,0.15-0.27c0.03-0.11,0.05-0.24,0.05-0.4v-2.28h0.6v2.21c0,0.26-0.03,0.48-0.1,0.66
		c-0.07,0.18-0.16,0.33-0.28,0.44c-0.12,0.12-0.26,0.2-0.42,0.25C131.67,21.55,131.5,21.58,131.32,21.58z"/>
	<path class="st0" d="M134.57,17.94c0.77,0,1.15,0.36,1.15,1.09c0,0.27-0.06,0.5-0.18,0.67c-0.12,0.18-0.29,0.3-0.52,0.36l0.95,1.47
		h-0.64l-0.92-1.42h-0.43v1.42h-0.59v-3.59H134.57z M134.55,19.62c0.18,0,0.32-0.04,0.43-0.13c0.11-0.09,0.16-0.24,0.16-0.45
		c0-0.21-0.05-0.36-0.16-0.46c-0.11-0.09-0.25-0.14-0.43-0.14h-0.58v1.18H134.55z"/>
	<path class="st0" d="M138.67,21.03v0.5h-2.31v-3.59h2.23v0.5h-1.63v1h1.56v0.49h-1.56v1.1H138.67z"/>
	<path class="st0" d="M140.95,21.53h-0.59l1.19-3.59h0.62l1.19,3.59h-0.59l-0.29-0.9h-1.25L140.95,21.53z M141.86,18.66l-0.48,1.52
		h0.96L141.86,18.66z"/>
	<path class="st0" d="M144.41,18.63v2.9h-0.57v-3.59h0.74l1.4,2.87v-2.87h0.57v3.59h-0.73L144.41,18.63z"/>
	<path class="st0" d="M148.46,17.94c0.28,0,0.52,0.04,0.72,0.13c0.2,0.09,0.37,0.21,0.5,0.37c0.13,0.16,0.22,0.35,0.28,0.57
		c0.06,0.22,0.09,0.46,0.09,0.73c0,0.27-0.03,0.51-0.09,0.73c-0.06,0.22-0.16,0.41-0.28,0.57c-0.13,0.16-0.29,0.28-0.5,0.37
		c-0.2,0.09-0.44,0.13-0.72,0.13h-1.17v-3.59H148.46z M148.49,21.03c0.13,0,0.26-0.02,0.37-0.06c0.12-0.04,0.22-0.12,0.3-0.22
		c0.09-0.1,0.15-0.23,0.2-0.4c0.05-0.17,0.07-0.37,0.07-0.62c0-0.24-0.03-0.45-0.08-0.61c-0.05-0.17-0.12-0.3-0.21-0.4
		c-0.09-0.1-0.2-0.17-0.32-0.21c-0.12-0.04-0.25-0.07-0.39-0.07h-0.57v2.59H148.49z"/>
	<path class="st0" d="M154.3,17.94v0.5h-1.01v3.09h-0.59v-3.09h-0.98v-0.5H154.3z"/>
	<path class="st0" d="M156.16,21.59c-0.23,0-0.44-0.04-0.64-0.12c-0.19-0.08-0.36-0.2-0.5-0.36c-0.14-0.16-0.25-0.35-0.32-0.57
		c-0.08-0.23-0.12-0.48-0.12-0.77c0-0.29,0.04-0.56,0.12-0.79c0.08-0.23,0.18-0.43,0.32-0.59c0.14-0.16,0.3-0.28,0.5-0.36
		c0.19-0.08,0.41-0.12,0.64-0.12c0.23,0,0.45,0.04,0.64,0.12c0.19,0.08,0.36,0.2,0.5,0.36c0.14,0.16,0.24,0.35,0.32,0.59
		c0.08,0.23,0.12,0.5,0.12,0.79c0,0.29-0.04,0.54-0.12,0.77c-0.08,0.23-0.19,0.42-0.32,0.57c-0.14,0.16-0.31,0.27-0.5,0.36
		C156.6,21.55,156.39,21.59,156.16,21.59z M156.16,18.39c-0.17,0-0.31,0.04-0.43,0.11c-0.12,0.07-0.22,0.17-0.31,0.3
		c-0.08,0.12-0.14,0.27-0.18,0.44c-0.04,0.17-0.06,0.35-0.06,0.54c0,0.19,0.02,0.37,0.07,0.53c0.04,0.16,0.11,0.3,0.19,0.42
		c0.08,0.12,0.19,0.21,0.31,0.28c0.12,0.07,0.26,0.1,0.42,0.1c0.16,0,0.3-0.03,0.42-0.1c0.12-0.07,0.22-0.16,0.31-0.28
		c0.08-0.12,0.15-0.26,0.19-0.42c0.04-0.16,0.07-0.34,0.07-0.53c0-0.19-0.02-0.37-0.06-0.54c-0.04-0.17-0.1-0.32-0.18-0.44
		c-0.08-0.12-0.18-0.22-0.31-0.3C156.47,18.42,156.32,18.39,156.16,18.39z"/>
	<path class="st0" d="M159.65,21.58c-0.18,0-0.35-0.03-0.51-0.08c-0.16-0.05-0.3-0.14-0.42-0.25c-0.12-0.11-0.21-0.26-0.28-0.44
		c-0.07-0.18-0.1-0.4-0.1-0.66v-2.21h0.6v2.28c0,0.16,0.02,0.29,0.05,0.4c0.03,0.11,0.08,0.2,0.15,0.27
		c0.06,0.07,0.14,0.12,0.23,0.15c0.09,0.03,0.19,0.05,0.29,0.05c0.11,0,0.2-0.02,0.29-0.05c0.09-0.03,0.17-0.08,0.23-0.15
		c0.06-0.07,0.11-0.16,0.15-0.27c0.03-0.11,0.05-0.24,0.05-0.4v-2.28h0.6v2.21c0,0.26-0.03,0.48-0.1,0.66
		c-0.07,0.18-0.16,0.33-0.28,0.44c-0.12,0.12-0.26,0.2-0.42,0.25C160.01,21.55,159.84,21.58,159.65,21.58z"/>
	<path class="st0" d="M162.9,17.94c0.77,0,1.15,0.36,1.15,1.09c0,0.27-0.06,0.5-0.18,0.67c-0.12,0.18-0.29,0.3-0.52,0.36l0.95,1.47
		h-0.64l-0.92-1.42h-0.43v1.42h-0.59v-3.59H162.9z M162.89,19.62c0.18,0,0.32-0.04,0.43-0.13c0.11-0.09,0.16-0.24,0.16-0.45
		c0-0.21-0.05-0.36-0.16-0.46c-0.11-0.09-0.25-0.14-0.43-0.14h-0.58v1.18H162.89z"/>
	<path class="st0" d="M164.7,17.94h0.59v3.59h-0.59V17.94z"/>
	<path class="st0" d="M166.53,21.02c0.13,0.05,0.27,0.08,0.42,0.08c0.19,0,0.35-0.05,0.47-0.14c0.12-0.09,0.18-0.23,0.18-0.4
		c0-0.08-0.01-0.15-0.04-0.21c-0.03-0.06-0.06-0.11-0.12-0.15c-0.05-0.05-0.12-0.09-0.2-0.13c-0.08-0.04-0.18-0.08-0.29-0.13
		c-0.15-0.06-0.29-0.12-0.42-0.19c-0.12-0.07-0.23-0.15-0.32-0.24c-0.09-0.09-0.16-0.19-0.21-0.3c-0.05-0.11-0.07-0.23-0.07-0.37
		c0-0.15,0.03-0.29,0.09-0.41c0.06-0.12,0.15-0.21,0.25-0.29c0.11-0.08,0.23-0.14,0.38-0.18c0.15-0.04,0.31-0.06,0.48-0.06
		c0.18,0,0.36,0.03,0.53,0.1c0.17,0.06,0.33,0.15,0.47,0.24l-0.27,0.43c-0.13-0.09-0.25-0.16-0.37-0.21
		c-0.12-0.05-0.24-0.08-0.37-0.08c-0.2,0-0.36,0.04-0.46,0.13c-0.1,0.09-0.15,0.19-0.15,0.31c0,0.08,0.02,0.15,0.04,0.22
		c0.03,0.06,0.08,0.12,0.14,0.17c0.06,0.05,0.14,0.1,0.23,0.14c0.09,0.04,0.19,0.09,0.31,0.13c0.16,0.06,0.29,0.13,0.41,0.2
		c0.12,0.07,0.22,0.14,0.3,0.23c0.08,0.09,0.14,0.18,0.18,0.29c0.04,0.11,0.06,0.23,0.06,0.37c0,0.14-0.03,0.27-0.08,0.39
		c-0.05,0.12-0.13,0.23-0.23,0.32c-0.1,0.09-0.23,0.17-0.38,0.22c-0.15,0.05-0.33,0.08-0.54,0.08c-0.2,0-0.39-0.03-0.57-0.09
		c-0.18-0.06-0.36-0.16-0.54-0.29l0.26-0.43C166.25,20.89,166.39,20.97,166.53,21.02z"/>
	<path class="st0" d="M170.67,21.53h-0.53l-0.81-2.45v2.45h-0.55v-3.59h0.65l0.98,2.99l0.97-2.99h0.65v3.59h-0.55v-2.44
		L170.67,21.53z"/>
</g>
<g>
	<path class="st0" d="M58.38,17.03c0.94,0,1.81,0,2.62,0c0.8,0,1.56-0.01,2.28-0.02v-1.47c-0.6-0.1-1.12-0.26-1.57-0.49
		c-0.45-0.23-0.82-0.49-1.11-0.79c-0.29-0.3-0.51-0.63-0.66-0.98c-0.15-0.36-0.22-0.72-0.22-1.09v-0.77c0-0.43,0.1-0.85,0.3-1.26
		c0.2-0.41,0.5-0.78,0.91-1.11c0.41-0.33,0.92-0.59,1.53-0.79c0.61-0.2,1.33-0.3,2.16-0.3c0.83,0,1.55,0.1,2.16,0.3
		c0.61,0.2,1.12,0.46,1.53,0.79c0.41,0.33,0.71,0.7,0.91,1.11c0.2,0.41,0.3,0.83,0.3,1.26v0.77c0,0.37-0.07,0.73-0.22,1.09
		c-0.15,0.36-0.37,0.68-0.66,0.98c-0.29,0.3-0.66,0.56-1.1,0.79c-0.44,0.23-0.96,0.39-1.56,0.49v1.41c1-0.03,1.87-0.06,2.63-0.11
		c0.76-0.04,1.45-0.1,2.09-0.17l0.19,2.26c-0.58,0.07-1.26,0.13-2.03,0.18c-0.77,0.05-1.66,0.09-2.66,0.12
		c-1,0.03-2.15,0.05-3.43,0.06c-1.28,0.01-2.73,0.02-4.36,0.02V17.03z M63.27,5.05V2.87h2.67v2.18h4.25v2.26H58.77V5.05H63.27z
		 M64.6,10.07c-0.83,0-1.43,0.17-1.81,0.51c-0.38,0.34-0.57,0.71-0.57,1.09v0.26c0,0.38,0.19,0.75,0.57,1.09
		c0.38,0.34,0.98,0.51,1.81,0.51c0.83,0,1.43-0.17,1.81-0.51c0.38-0.34,0.57-0.71,0.57-1.09v-0.26c0-0.38-0.19-0.75-0.57-1.09
		C66.03,10.24,65.42,10.07,64.6,10.07z M74.32,10.64h2.76v2.35h-2.76v9.78h-2.67V2.91h2.67V10.64z"/>
	<path class="st0" d="M95.96,12.61v2.29H88.5v3.53h-2.69v-3.53h-8.05v-2.29H95.96z M86.88,8.27c-0.1,0.17-0.34,0.38-0.72,0.64
		c-0.38,0.26-0.97,0.57-1.78,0.94c-0.64,0.3-1.31,0.6-2.01,0.9c-0.7,0.3-1.45,0.61-2.26,0.94l-1.03-2.2
		c0.73-0.29,1.48-0.6,2.25-0.93c0.78-0.34,1.51-0.67,2.19-0.99c0.66-0.33,1.15-0.68,1.47-1.05c0.33-0.37,0.49-0.89,0.49-1.56V3.21
		h2.73v1.75c0,0.65,0.16,1.17,0.48,1.55c0.32,0.38,0.81,0.73,1.46,1.06c0.68,0.33,1.41,0.66,2.19,0.99
		c0.78,0.33,1.53,0.64,2.25,0.93l-1,2.16c-0.81-0.33-1.57-0.64-2.28-0.95c-0.71-0.31-1.37-0.6-2-0.89c-0.8-0.37-1.38-0.68-1.75-0.92
		c-0.37-0.24-0.6-0.45-0.68-0.62H86.88z M83.01,20.28H93.8v2.29H80.32v-5.85h2.69V20.28z"/>
	<path class="st0" d="M112.73,3.74v3.27c0,0.24-0.01,0.53-0.03,0.88c-0.02,0.34-0.05,0.71-0.09,1.09c-0.04,0.39-0.08,0.78-0.14,1.19
		c-0.06,0.41-0.13,0.79-0.21,1.16h3.14v2.27h-7.46v4.38h-2.69v-4.38H97.2v-2.27h12.33c0.09-0.34,0.16-0.7,0.22-1.08
		c0.06-0.38,0.12-0.75,0.16-1.12c0.04-0.37,0.08-0.72,0.1-1.06c0.02-0.33,0.03-0.64,0.03-0.91V6.03H99.57V3.74H112.73z
		 M102.45,20.28h10.79v2.29H99.76v-6.26h2.69V20.28z"/>
	<path class="st0" d="M76.52,35.77v2.26h-7.46v3.46h-2.69v-3.46h-8.05v-2.26H76.52z M73.96,26.65v7.56H60.88v-7.56H73.96z
		 M63.57,43.34h10.79v2.29H60.88v-5.79h2.69V43.34z M63.55,31.97h7.73v-3.08h-7.73V31.97z"/>
	<path class="st0" d="M77.82,40.09c0.94,0,1.81,0,2.62,0c0.8,0,1.56-0.01,2.28-0.02v-1.47c-0.6-0.1-1.12-0.26-1.57-0.49
		c-0.45-0.23-0.82-0.49-1.11-0.79c-0.29-0.3-0.51-0.63-0.66-0.98c-0.15-0.36-0.22-0.72-0.22-1.09v-0.77c0-0.43,0.1-0.85,0.3-1.26
		c0.2-0.41,0.5-0.78,0.91-1.11c0.41-0.33,0.92-0.59,1.53-0.79c0.61-0.2,1.33-0.3,2.16-0.3c0.83,0,1.55,0.1,2.16,0.3
		c0.61,0.2,1.12,0.46,1.53,0.79c0.41,0.33,0.71,0.7,0.91,1.11c0.2,0.41,0.3,0.83,0.3,1.26v0.77c0,0.37-0.07,0.73-0.22,1.09
		c-0.15,0.36-0.37,0.68-0.66,0.98c-0.29,0.3-0.66,0.56-1.1,0.79c-0.44,0.23-0.96,0.39-1.56,0.49V40c1-0.03,1.87-0.06,2.63-0.11
		c0.76-0.04,1.45-0.1,2.09-0.17l0.19,2.26c-0.58,0.07-1.26,0.13-2.03,0.18c-0.77,0.05-1.66,0.09-2.66,0.12
		c-1,0.03-2.15,0.05-3.43,0.06c-1.28,0.01-2.73,0.02-4.36,0.02V40.09z M82.71,28.1v-2.18h2.67v2.18h4.25v2.26H78.21V28.1H82.71z
		 M84.04,33.12c-0.83,0-1.43,0.17-1.81,0.51c-0.38,0.34-0.57,0.71-0.57,1.09v0.26c0,0.38,0.19,0.75,0.57,1.09
		c0.38,0.34,0.98,0.51,1.81,0.51c0.83,0,1.43-0.17,1.81-0.51c0.38-0.34,0.57-0.71,0.57-1.09v-0.26c0-0.38-0.19-0.75-0.57-1.09
		C85.47,33.29,84.86,33.12,84.04,33.12z M93.76,33.7h2.76v2.35h-2.76v9.78h-2.67V25.97h2.67V33.7z"/>
	<path class="st0" d="M97.22,35.77h3.42v-3.87h2.69v3.82c1.37-0.01,2.54-0.05,3.53-0.11c0.98-0.06,1.86-0.13,2.63-0.21l0.19,2.29
		c-0.58,0.07-1.26,0.13-2.02,0.18c-0.76,0.05-1.64,0.09-2.65,0.12c-1,0.03-2.15,0.05-3.43,0.06c-1.28,0.02-2.73,0.02-4.36,0.02
		V35.77z M108.24,26.95v2.88c0,0.29-0.01,0.61-0.03,0.98c-0.02,0.37-0.05,0.76-0.09,1.15c-0.03,0.4-0.08,0.8-0.14,1.2
		c-0.06,0.4-0.13,0.76-0.21,1.09l-2.61-0.32c0.16-0.74,0.27-1.45,0.33-2.12c0.06-0.67,0.1-1.23,0.1-1.69v-0.85h-7.22v-2.33H108.24z
		 M102.86,43.38h10.81v2.31h-13.52v-6.05h2.71V43.38z M113.14,31.8h2.63v2.35h-2.63v6.56h-2.67V25.97h2.67V31.8z"/>
	<path class="st0" d="M116.66,35.15h3.42v-3.85h2.69v3.8c1.44-0.01,2.64-0.05,3.59-0.11c0.95-0.06,1.81-0.13,2.56-0.21l0.19,2.24
		c-0.54,0.07-1.18,0.13-1.91,0.18c-0.73,0.05-1.6,0.09-2.6,0.12c-1,0.03-2.15,0.05-3.45,0.08c-1.3,0.02-2.8,0.03-4.5,0.03V35.15z
		 M127.68,26.84v2.82c0,0.24-0.01,0.53-0.03,0.88c-0.02,0.34-0.05,0.7-0.09,1.08c-0.03,0.38-0.08,0.76-0.14,1.14
		c-0.06,0.38-0.13,0.74-0.21,1.07l-2.61-0.32c0.16-0.74,0.27-1.42,0.33-2.04c0.06-0.62,0.1-1.13,0.1-1.53v-0.81h-7.22v-2.29H127.68z
		 M126.25,46.43c-0.98,0-1.87-0.09-2.66-0.27c-0.79-0.18-1.46-0.43-2.01-0.75c-0.55-0.32-0.97-0.71-1.26-1.16
		c-0.29-0.46-0.44-0.95-0.44-1.5v-0.68c0-0.54,0.15-1.04,0.44-1.5c0.29-0.46,0.71-0.84,1.26-1.16c0.55-0.32,1.22-0.57,2.01-0.75
		c0.79-0.18,1.68-0.27,2.66-0.27c0.98,0,1.87,0.09,2.66,0.27c0.79,0.18,1.46,0.43,2.01,0.75c0.55,0.32,0.97,0.71,1.26,1.16
		c0.29,0.46,0.44,0.95,0.44,1.5v0.68c0,0.54-0.15,1.04-0.44,1.5c-0.29,0.46-0.71,0.84-1.26,1.16c-0.55,0.32-1.22,0.57-2.01,0.75
		C128.12,46.34,127.24,46.43,126.25,46.43z M126.25,44.28c0.58,0,1.11-0.05,1.57-0.15c0.46-0.1,0.85-0.23,1.16-0.4
		c0.31-0.16,0.55-0.35,0.72-0.54c0.16-0.2,0.25-0.4,0.25-0.6v-0.34c0-0.2-0.08-0.4-0.25-0.6c-0.16-0.2-0.4-0.38-0.72-0.54
		c-0.31-0.16-0.7-0.3-1.16-0.4c-0.46-0.1-0.99-0.15-1.57-0.15c-0.58,0-1.11,0.05-1.57,0.15c-0.46,0.1-0.85,0.23-1.16,0.4
		c-0.31,0.16-0.55,0.35-0.72,0.54c-0.16,0.2-0.25,0.4-0.25,0.6v0.34c0,0.2,0.08,0.4,0.25,0.6c0.16,0.2,0.4,0.38,0.72,0.54
		c0.31,0.16,0.7,0.3,1.16,0.4C125.15,44.23,125.67,44.28,126.25,44.28z M132.58,30.92h2.63v2.35h-2.63v4.72h-2.67V25.97h2.67V30.92z
		"/>
	<path class="st0" d="M136.55,27.87h8.87v2.31h-3.06v2.52c0,0.37,0.02,0.7,0.06,0.98c0.04,0.29,0.11,0.55,0.21,0.8
		c0.1,0.25,0.23,0.5,0.39,0.74c0.16,0.24,0.34,0.5,0.56,0.77c0.4,0.5,0.85,1.02,1.36,1.56c0.51,0.54,0.99,1.04,1.44,1.5l-1.77,1.67
		c-0.41-0.43-0.82-0.86-1.23-1.3c-0.41-0.44-0.77-0.85-1.1-1.24c-0.26-0.3-0.49-0.58-0.69-0.83c-0.21-0.26-0.35-0.47-0.42-0.64
		h-0.02c-0.07,0.17-0.21,0.39-0.42,0.66c-0.21,0.27-0.45,0.57-0.72,0.9c-0.36,0.43-0.76,0.89-1.22,1.4
		c-0.46,0.51-0.9,0.98-1.35,1.42l-1.77-1.77c0.44-0.43,0.92-0.92,1.42-1.47c0.51-0.56,0.97-1.09,1.38-1.6
		c0.23-0.28,0.42-0.56,0.59-0.81c0.16-0.26,0.3-0.52,0.4-0.78c0.1-0.26,0.17-0.55,0.21-0.85c0.04-0.31,0.06-0.66,0.06-1.06v-2.54
		h-3.18V27.87z M149.13,32.93h1.71v-6.96h2.56v19.87h-2.56V35.26h-1.71v9.61h-2.56v-18.5h2.56V32.93z"/>
	<path class="st0" d="M156.33,27.18h9.29v2.33H159v5.11c0.74,0,1.45,0,2.12-0.01c0.67-0.01,1.32-0.02,1.95-0.04
		c0.63-0.02,1.27-0.06,1.91-0.11c0.64-0.05,1.3-0.11,1.99-0.18l0.24,2.26c-0.64,0.09-1.31,0.15-2.02,0.2s-1.49,0.09-2.34,0.12
		c-0.85,0.03-1.81,0.05-2.87,0.05c-1.06,0.01-2.28,0.01-3.64,0.01V27.18z M161.63,43.31h10.13v2.31h-12.84V39h2.71V43.31z
		 M171.29,30.9h2.61v2.35h-2.61v6.86h-2.69V25.97h2.69V30.9z"/>
</g>
<path class="st1" d="M17.63,14.49c0,1.53-1.24,2.78-2.78,2.78c-1.53,0-2.78-1.24-2.78-2.78c0-1.53,1.24-2.78,2.78-2.78
	C16.39,11.72,17.63,12.96,17.63,14.49z"/>
<g>
	<path class="st0" d="M11.56,26.67v6.99h6.99v-6.99H11.56z M17.39,32.5h-4.66v-4.66h4.66V32.5z"/>
	<path class="st0" d="M49.02,25.52h0.5h0.67V0H0.2v12.05h1.17V1.17h12.93v3.58v1.39v4.75H4.64v1.17h7.94
		c-0.73,0.64-1.2,1.57-1.2,2.62c0,1.73,1.26,3.16,2.91,3.44v6.25h-3.6c-2.8,0-5.07-2.27-5.07-5.07v-3.28h0v-1.17h0H4.46H1.37H0.2
		v1.17V50h49.98V28.33h-1.17v20.51H1.37V16.01h3.09v3.28c0,3.44,2.8,6.24,6.24,6.24h15.02v0h0.11V5.91h13.95
		c2.8,0,5.07,2.27,5.07,5.07v1.21h-2.37c-2.85,0-5.16-2.31-5.17-5.16c0,0,0-0.01,0-0.01h0h-1.17h0c0,0,0,0.01,0,0.01
		c0,2.85-2.32,5.16-5.17,5.16h-3.35v1.17h3.35c2.55,0,4.75-1.52,5.75-3.7c1,2.18,3.2,3.7,5.75,3.7h3.54v0v-1.16v-1.21
		c0-3.44-2.8-6.24-6.24-6.24H25.83h-1.17v1.17v4.98h-9.2V6.14V4.74V1.17h33.56v23.19h-3v-7.32h0.01v-1.17H27.66v1.17h8.79v5.29h1.17
		v-5.29h7.23v7.32H34c-2.85,0-5.17-2.32-5.17-5.17h-1.17c0,3.49,2.84,6.33,6.33,6.33h10.85v0.4c-0.06,2.79-2.35,5.05-5.16,5.05
		h-2.57v0h-1.17v7.84h-7.8c-1.4,0-2.55-1.14-2.55-2.55v-0.43h1.48h0.1v-0.01c2.15-0.05,3.88-1.81,3.88-3.97v-2.71v-1.17H29.9h-9.04
		v1.17h9.04v2.71c0,1.55-1.26,2.82-2.82,2.82H25.6v-3.7h-1.17v3.7h-0.23H4.64v0.03H4.46v4.87c0,3.44,2.8,6.24,6.24,6.24h4.27h13.38
		h2.53c3.3,0,6-2.58,6.22-5.83h2.84c-0.56,0.62-0.91,1.43-0.91,2.33c0,1.93,1.57,3.5,3.5,3.5c1.93,0,3.5-1.57,3.5-3.5
		c0-1.93-1.57-3.5-3.5-3.5h-5.41v-6.67h2.57c3.45,0,6.26-2.77,6.33-6.21h0v-0.01c0-0.04,0.01-0.08,0.01-0.12h-0.01v-0.28H49.02z
		 M12.55,14.67c0-1.28,1.05-2.33,2.33-2.33c1.28,0,2.33,1.05,2.33,2.33c0,1.28-1.05,2.33-2.33,2.33
		C13.59,17,12.55,15.95,12.55,14.67z M24.66,24.36h-9.2v-6.25c1.65-0.28,2.91-1.71,2.91-3.44c0-1.05-0.47-1.98-1.2-2.62h7.49V24.36z
		 M30.88,44.63h-2.53H14.96h-4.27c-2.8,0-5.07-2.27-5.07-5.07v-3.73h8.85v6.51h1.17v-6.51h8.57h0.23v0.53h0.01
		c0.05,2,1.69,3.62,3.7,3.62h7.78C35.72,42.58,33.53,44.63,30.88,44.63z M44.86,42.31c0,1.28-1.05,2.33-2.33,2.33
		c-1.28,0-2.33-1.05-2.33-2.33c0-1.28,1.05-2.33,2.33-2.33C43.81,39.98,44.86,41.02,44.86,42.31z"/>
</g>
</svg>
